<svg id="Capa_1" enable-background="new 0 0 60 43" x="0" y="0" width="69px" height="39px" viewBox="0 0 50 39"  xmlns="http://www.w3.org/2000/svg"><g id="Page-1"><g><path id="Shape" d="m1.813 34.131 5.768 1.659c1.325.387 2.713-.375 3.1-1.7l2.31-7.973c.026-.086.065-.168.115-.242l3.894-5.714v19.839c0 1.657 1.343 3 3 3h20c1.657 0 3-1.343 3-3v-19.839l3.881 5.693c.063.091.111.193.14.3l2.3 7.927c.186.637.617 1.173 1.198 1.492s1.266.394 1.902.208l5.771-1.66c.639-.183 1.178-.613 1.499-1.195s.397-1.267.212-1.905l-2.7-9.3c-.087-.306-.224-.596-.405-.857l-13.366-19.556c-.559-.819-1.487-1.308-2.478-1.308h-21.908c-.991 0-1.918.489-2.477 1.307l-9.427 13.793-3.928 5.753c-.186.264-.326.558-.415.869l-2.7 9.3c-.185.638-.109 1.323.212 1.905s.86 1.012 1.499 1.195zm6.711-.3c-.118.065-.258.08-.387.042l-5.771-1.66c-.267-.079-.42-.357-.345-.625l.6-2.057 6.718 2.017-.577 1.99c-.038.124-.124.228-.238.289zm1.662-19.634 5.531 4.3-.9 1.323-5.53-4.31zm40.528 1.313-5.529 4.307-.9-1.323 5.531-4.3zm7.221 16.457c-.064.117-.172.204-.3.242l-5.775 1.661c-.129.038-.267.022-.384-.043-.116-.064-.2-.172-.235-.3l-.577-1.988 6.718-2.017.6 2.057c.037.13.02.27-.047.388zm-2.656-9.689 1.546 5.328-6.718 2.017-1.155-3.978c-.082-.321-.219-.626-.406-.9l-2.232-3.274 5.53-4.309 3.309 4.843c.058.083.1.175.126.273zm-31.739-20.278 5.7 6.651c.19.221.467.349.759.349s.569-.127.759-.349l5.702-6.651h2.64l-8.339 9.728c-.195.215-.472.337-.761.337s-.566-.122-.761-.337l-8.339-9.728zm2.634 0h7.652l-3.826 4.463zm-7.953.435c.062-.087.137-.163.223-.226l9.279 10.823c.57.665 1.402 1.047 2.278 1.047s1.708-.383 2.278-1.047l9.277-10.822c.087.063.162.14.224.227l6.9 10.1-5.554 4.323c-.352-.364-.889-.476-1.358-.285-.468.192-.772.649-.768 1.155v22.27c0 .552-.448 1-1 1h-20c-.552 0-1-.448-1-1v-22.27c.004-.552-.356-1.04-.884-1.2-.12-.037-.245-.056-.37-.056-.332.002-.648.138-.879.376l-5.55-4.317zm-13.5 19.842c.028-.102.074-.197.135-.283l3.3-4.83 5.53 4.309-2.245 3.293c-.173.255-.302.537-.381.835l-1.167 4.022-6.718-2.017z"/><path d="m21.15 27.887 3.371 2.732-.041.112c-.079.227-.162.454-.25.692-.144.399-.06.845.219 1.164.279.32.708.464 1.123.377l3.428-.729v3.765c0 .552.448 1 1 1s1-.448 1-1v-3.765l3.437.731c.416.084.844-.063 1.12-.385s.356-.768.21-1.166c-.085-.23-.168-.457-.249-.69l-.039-.106 3.371-2.732c.23-.187.461-.374.7-.559.324-.227.496-.615.446-1.008s-.315-.725-.686-.863c-.108-.047-.214-.1-.32-.145l.621-1.924c.13-.396.039-.831-.238-1.141-.277-.311-.699-.451-1.107-.368l-1.8.383c-.075-.176-.15-.355-.226-.542-.131-.358-.442-.621-.817-.689-.378-.059-.759.083-1.007.374-.1.115-.212.23-.318.345l.473-2.417c.09-.451-.094-.914-.469-1.18s-.872-.287-1.269-.053l-.654.379c-.324-.637-.748-1.475-1.136-2.244-.198-.394-.602-.644-1.043-.644s-.845.249-1.043.644c-.388.769-.812 1.608-1.136 2.244l-.653-.378c-.396-.231-.891-.209-1.265.056-.374.266-.558.726-.469 1.176l.474 2.421-.324-.351c-.246-.296-.634-.436-1.013-.366s-.69.34-.813.706c-.071.176-.145.35-.218.523l-1.794-.381c-.408-.087-.831.05-1.11.359s-.372.744-.244 1.141l.622 1.93c-.107.05-.214.1-.325.147-.37.139-.632.472-.681.864s.123.779.447 1.006c.234.181.465.368.695.555zm2.468-3.563c.548.144 1.126-.084 1.429-.563l.515.551.418.449.106.112c.409.416 1.041.516 1.559.249.519-.272.795-.855.677-1.429-.034-.192-.071-.383-.108-.575l-.476-2.428c.24.074.496.077.737.007.363-.112.663-.372.824-.716.171-.335.423-.831.7-1.38.278.55.53 1.046.7 1.383.162.343.46.602.823.713.241.07.496.067.736-.006l-.475 2.427c-.037.192-.074.383-.1.546-.131.576.137 1.169.656 1.45.519.282 1.163.183 1.574-.241.012-.011.094-.1.106-.112l.418-.449.515-.551c.304.482.886.709 1.436.562l.876-.188-.342 1.065c-.189.494-.063 1.053.319 1.419l-3.33 2.7c-.448.305-.655.86-.517 1.384l-3.186-.677c-.144-.032-.293-.032-.437 0l-3.165.673c.139-.522-.066-1.075-.512-1.38l-3.335-2.7c.382-.366.508-.925.319-1.419l-.343-1.062z"/></g></g></svg>